<?xml version="1.0" encoding="UTF-8"?>
<svg width="500px" height="500px" viewBox="0 0 500 500" version="1.1" xmlns="http://www.w3.org/2000/svg" xmlns:xlink="http://www.w3.org/1999/xlink">
    <!-- Generator: Sketch 40.1 (33804) - http://www.bohemiancoding.com/sketch -->
    <title>Artboard</title>
    <desc>Created with Sketch.</desc>
    <defs></defs>
    <g id="Page-1" stroke="none" stroke-width="1" fill="none" fill-rule="evenodd">
        <g id="Artboard" fill="#000000">
            <g id="close" transform="translate(41.000000, 41.000000)">
                <path d="M237.219469,209.464133 L413.264938,33.4488037 C420.911688,25.7902714 420.911688,13.392613 413.264938,5.73408064 C405.605094,-1.91136021 393.205312,-1.91136021 385.545469,5.73408064 L209.5,181.74941 L33.4545313,5.73408064 C25.7946875,-1.91136021 13.3949063,-1.91136021 5.7350625,5.73408064 C-1.9116875,13.392613 -1.9116875,25.7902714 5.7350625,33.4488037 L181.780531,209.464133 L5.7350625,385.479462 C-1.9116875,393.137994 -1.9116875,405.535653 5.7350625,413.194185 C9.5584375,417.016905 14.5864375,418.941357 19.58825,418.941357 C24.5900625,418.941357 29.6180625,417.016905 33.4414375,413.194185 L209.486906,237.178856 L385.532375,413.194185 C389.35575,417.016905 394.38375,418.941357 399.385562,418.941357 C404.387375,418.941357 409.415375,417.016905 413.23875,413.194185 C420.8855,405.535653 420.8855,393.137994 413.23875,385.479462 L237.193281,209.464133 L237.219469,209.464133 Z" id="Shape"></path>
            </g>
        </g>
    </g>
</svg>