<svg xmlns="http://www.w3.org/2000/svg" viewBox="0 0 500 500">
    <title>close</title>
    <path fill-rule="evenodd" d="M278.22 250.464L454.264 74.45c7.647-7.66 7.647-20.057 0-27.716-7.66-7.645-20.06-7.645-27.72 0L250.5 222.75 74.455 46.733c-7.66-7.645-20.06-7.645-27.72 0-7.647 7.66-7.647 20.056 0 27.715L222.78 250.463 46.736 426.48c-7.647 7.658-7.647 20.056 0 27.714 3.823 3.823 8.85 5.747 13.853 5.747 5 0 10.03-1.92 13.85-5.743L250.49 278.18l176.045 176.014c3.824 3.823 8.852 5.747 13.854 5.747 5 0 10.03-1.92 13.852-5.743 7.645-7.658 7.645-20.056 0-27.715l-176.05-176.018h.026z"/>
</svg>
