<?xml version="1.0" encoding="UTF-8"?>
<svg width="500px" height="500px" viewBox="0 0 500 500" version="1.1" xmlns="http://www.w3.org/2000/svg" xmlns:xlink="http://www.w3.org/1999/xlink">
    <!-- Generator: Sketch 40.1 (33804) - http://www.bohemiancoding.com/sketch -->
    <title>Artboard</title>
    <desc>Created with Sketch.</desc>
    <defs></defs>
    <g id="Page-1" stroke="none" stroke-width="1" fill="none" fill-rule="evenodd">
        <g id="Artboard" fill="#000000">
            <g id="facebook" transform="translate(127.000000, 13.000000)">
                <path d="M246.715438,3.41474654 L246.715438,78.5391705 L202.039171,78.5391705 C185.72465,78.5391705 174.721198,81.9539171 169.029954,88.7834101 C163.33871,95.6129032 160.493088,105.857143 160.493088,119.516129 L160.493088,173.298387 L243.869816,173.298387 L232.771889,257.528802 L160.493088,257.528802 L160.493088,473.511521 L73.4170507,473.511521 L73.4170507,257.528802 L0.853686636,257.528802 L0.853686636,173.298387 L73.4170507,173.298387 L73.4170507,111.263825 C73.4170507,75.9781106 83.2822535,48.6123318 103.011521,29.1676267 C122.740788,9.72292166 149.016124,0 181.835253,0 C209.72235,0 231.349078,1.13824885 246.715438,3.41474654 L246.715438,3.41474654 Z" id="Shape"></path>
            </g>
        </g>
    </g>
</svg>