<?xml version="1.0" encoding="UTF-8"?>
<svg width="500px" height="500px" viewBox="0 0 500 500" version="1.1" xmlns="http://www.w3.org/2000/svg" xmlns:xlink="http://www.w3.org/1999/xlink">
    <!-- Generator: Sketch 40.1 (33804) - http://www.bohemiancoding.com/sketch -->
    <title>Artboard</title>
    <desc>Created with Sketch.</desc>
    <defs></defs>
    <g id="Page-1" stroke="none" stroke-width="1" fill="none" fill-rule="evenodd">
        <g id="Artboard" fill="#000000">
            <g id="linkedin" transform="translate(38.000000, 37.000000)">
                <g id="Shape">
                    <path d="M96.3385417,131.671875 L96.3385417,405.229167 L5.24479167,405.229167 L5.24479167,131.671875 L96.3385417,131.671875 L96.3385417,131.671875 Z M102.135417,47.203125 C102.319813,60.6375208 97.672375,71.8624792 88.1953125,80.8802083 C78.71825,89.8979375 66.25,94.40625 50.7916667,94.40625 L50.2395833,94.40625 C35.1489375,94.40625 23.0031042,89.8979375 13.8020833,80.8802083 C4.6010625,71.8624792 0,60.6375208 0,47.203125 C0,33.5854375 4.73908333,22.313 14.2161458,13.3880208 C23.6932083,4.46304167 36.0698125,0 51.34375,0 C66.6176875,0 78.8562708,4.46304167 88.0572917,13.3880208 C97.2583125,22.313 101.951021,33.5854375 102.135417,47.203125 L102.135417,47.203125 Z M424,248.4375 L424,405.229167 L333.182292,405.229167 L333.182292,258.927083 C333.182292,239.604167 329.455729,224.46825 322.002604,213.518229 C314.549479,202.568208 302.909354,197.09375 287.083333,197.09375 C275.489583,197.09375 265.78175,200.268229 257.960938,206.617187 C250.140125,212.966146 244.296875,220.833333 240.432292,230.21875 C238.408354,235.739583 237.395833,243.192708 237.395833,252.578125 L237.395833,405.229167 L146.578125,405.229167 C146.945812,331.802083 147.130208,272.268729 147.130208,226.630208 C147.130208,180.991687 147.038563,153.755208 146.854167,144.921875 L146.578125,131.671875 L237.395833,131.671875 L237.395833,171.421875 L236.84375,171.421875 C240.523937,165.533354 244.296875,160.380208 248.161458,155.963542 C252.026042,151.546875 257.224458,146.762521 263.757812,141.609375 C270.291167,136.456229 278.296375,132.453625 287.773438,129.601562 C297.2505,126.7495 307.786458,125.322917 319.380208,125.322917 C350.848958,125.322917 376.153146,135.766125 395.291667,156.653646 C414.430187,177.541167 424,208.135417 424,248.4375 L424,248.4375 Z"></path>
                </g>
            </g>
        </g>
    </g>
</svg>