<?xml version="1.0" encoding="UTF-8"?>
<svg width="500px" height="500px" viewBox="0 0 500 500" version="1.1" xmlns="http://www.w3.org/2000/svg" xmlns:xlink="http://www.w3.org/1999/xlink">
    <!-- Generator: Sketch 40.1 (33804) - http://www.bohemiancoding.com/sketch -->
    <title>Artboard</title>
    <desc>Created with Sketch.</desc>
    <defs></defs>
    <g id="Page-1" stroke="none" stroke-width="1" fill="none" fill-rule="evenodd">
        <g id="Artboard" fill="#000000">
            <g id="menu" transform="translate(42.000000, 88.000000)">
                <path d="M405.131363,0 L11.5766287,0 C5.18568144,0 7.10542736e-15,2.592 7.10542736e-15,5.781375 L7.10542736e-15,40.5 C7.10542736e-15,43.689375 5.18568144,46.281375 11.5766287,46.281375 L405.131363,46.281375 C411.52231,46.281375 416.707992,43.689375 416.707992,40.5 L416.707992,5.781375 C416.707992,2.592 411.52231,2.24820162e-15 405.131363,2.24820162e-15 L405.131363,2.24820162e-15 L405.131363,0 Z M405.131363,138.85425 L11.5766287,138.85425 C5.18568144,138.85425 7.10542736e-15,141.44625 7.10542736e-15,144.635625 L7.10542736e-15,179.35425 C7.10542736e-15,182.543625 5.18568144,185.135625 11.5766287,185.135625 L405.131363,185.135625 C411.52231,185.135625 416.707992,182.543625 416.707992,179.35425 L416.707992,144.635625 C416.707992,141.44625 411.52231,138.85425 405.131363,138.85425 L405.131363,138.85425 L405.131363,138.85425 Z M405.131363,277.718625 L11.5766287,277.718625 C5.18568144,277.718625 7.10542736e-15,280.310625 7.10542736e-15,283.5 L7.10542736e-15,318.218625 C7.10542736e-15,321.408 5.18568144,324 11.5766287,324 L405.131363,324 C411.52231,324 416.707992,321.408 416.707992,318.218625 L416.707992,283.5 C416.707992,280.310625 411.52231,277.718625 405.131363,277.718625 L405.131363,277.718625 L405.131363,277.718625 Z" id="Shape"></path>
            </g>
        </g>
    </g>
</svg>