<svg xmlns="http://www.w3.org/2000/svg" viewBox="0 0 500 500">
    <title>menu</title>
    <path fill-rule="evenodd" d="M447.13 88H53.578C47.188 88 42 90.592 42 93.78v34.72c0 3.19 5.186 5.78 11.577 5.78H447.13c6.392 0 11.578-2.59 11.578-5.78V93.78c0-3.188-5.186-5.78-11.577-5.78zm0 138.854H53.578c-6.39 0-11.577 2.592-11.577 5.782v34.718c0 3.19 5.19 5.782 11.58 5.782h393.55c6.394 0 11.58-2.592 11.58-5.782v-34.718c0-3.19-5.186-5.782-11.577-5.782zm0 138.865H53.578c-6.39 0-11.577 2.59-11.577 5.78v34.72c0 3.184 5.19 5.78 11.58 5.78h393.55c6.394 0 11.58-2.596 11.58-5.78V371.5c0-3.19-5.186-5.78-11.577-5.78z"/>
</svg>
