<?xml version="1.0" encoding="UTF-8"?>
<svg width="500px" height="500px" viewBox="0 0 500 500" version="1.1" xmlns="http://www.w3.org/2000/svg" xmlns:xlink="http://www.w3.org/1999/xlink">
    <!-- Generator: Sketch 40.1 (33804) - http://www.bohemiancoding.com/sketch -->
    <title>Artboard</title>
    <desc>Created with Sketch.</desc>
    <defs></defs>
    <g id="Page-1" stroke="none" stroke-width="1" fill="none" fill-rule="evenodd">
        <g id="Artboard" fill="#000000">
            <g id="twitter" transform="translate(18.000000, 61.000000)">
                <g id="Shape">
                    <path d="M464.5625,44.8055203 C451.395572,64.0636404 435.477822,80.4730727 416.809248,94.032638 C417.006157,96.7834611 417.104021,100.910285 417.104021,106.413111 C417.104021,131.960511 413.369835,157.458389 405.902641,182.906746 C398.435447,208.355102 387.086681,232.772932 371.856341,256.157876 C356.626002,279.54282 338.497452,300.226463 317.470693,318.207626 C296.443934,336.188789 271.093442,350.534809 241.419218,361.244507 C211.744993,371.954206 180.008536,377.309645 146.207487,377.309645 C92.9514101,377.309645 44.215974,363.062668 0,334.567536 C6.87764737,335.353991 14.5417495,335.746629 22.9923065,335.746629 C67.2082805,335.746629 106.610019,322.187064 141.196344,295.067933 C120.562222,294.675295 102.089378,288.337672 85.7789895,276.055064 C69.468601,263.772456 58.267221,248.101136 52.1748493,229.038745 C58.6598588,230.020929 64.6531867,230.512611 70.1560121,230.512611 C78.606569,230.512611 86.9580822,229.431383 95.2117306,227.270106 C73.2016083,222.750644 54.9751943,211.794515 40.5313095,194.402899 C26.0874247,177.011283 18.8654822,156.819321 18.8654822,133.827015 L18.8654822,132.647922 C32.2281391,140.115116 46.5741593,144.144075 61.9023636,144.733622 C48.9323445,136.087335 38.6152839,124.786911 30.9511818,110.834708 C23.2870796,96.8825049 19.4550286,81.75003 19.4550286,65.4396415 C19.4550286,48.1458898 23.7787613,32.1302744 32.4250476,17.3916164 C56.2038089,46.672024 85.1399213,70.1064902 119.235743,87.6950151 C153.331565,105.28354 189.833915,115.059397 228.743972,117.024944 C227.172242,109.557751 226.385787,102.286286 226.385787,95.2117306 C226.385787,68.8790547 235.671141,46.4267727 254.24185,27.8560636 C272.812559,9.28535454 295.264842,0 321.597517,0 C349.109286,0 372.298501,10.0222874 391.163983,30.0668623 C412.584559,25.9400381 432.726999,18.2759359 451.592481,7.07455584 C444.321017,29.6742245 430.368813,47.1637056 409.734692,59.5441783 C428.010628,57.5786309 446.286564,52.6665309 464.5625,44.8055203 L464.5625,44.8055203 Z"></path>
                </g>
            </g>
        </g>
    </g>
</svg>